/* XPM */
static char * out_puttyNode_xpm[] = {
"20 20 185 2",
"  	c #B4B4B4",
". 	c #B3B3B5",
"+ 	c #9CA0C1",
"@ 	c #7D86DC",
"# 	c #7B86F0",
"$ 	c #7480F5",
"% 	c #737FF2",
"& 	c #717DED",
"* 	c #6E7AE7",
"= 	c #7882DF",
"- 	c #858DD3",
"; 	c #A9ABBD",
"> 	c #B0B0B6",
", 	c #7B83CE",
"' 	c #7681EE",
") 	c #B6BDFC",
"! 	c #E2E5FF",
"~ 	c #FEFEFF",
"{ 	c #FFFFFF",
"] 	c #FDFDFF",
"^ 	c #E8EAFF",
"/ 	c #C4C9FC",
"( 	c #7C87EE",
"_ 	c #9297C5",
": 	c #B3B3B4",
"< 	c #B1B2B5",
"[ 	c #757ED3",
"} 	c #8891ED",
"| 	c #8F9AFE",
"1 	c #2E42FF",
"2 	c #6D7BFF",
"3 	c #FBFBFF",
"4 	c #EEF0FE",
"5 	c #828CF1",
"6 	c #969BCD",
"7 	c #9296C4",
"8 	c #7C86EB",
"9 	c #BFC5FD",
"0 	c #142AFF",
"a 	c #0018FF",
"b 	c #152BFF",
"c 	c #9EA7FF",
"d 	c #8893FF",
"e 	c #495AFF",
"f 	c #2C40FF",
"g 	c #3D4FFF",
"h 	c #7C88FF",
"i 	c #E0E3FF",
"j 	c #EAECFE",
"k 	c #7884F2",
"l 	c #A6A8BC",
"m 	c #B2B3B6",
"n 	c #6A76E6",
"o 	c #E2E5FB",
"p 	c #BEC4FF",
"q 	c #071EFF",
"r 	c #3A4DFF",
"s 	c #CDD2FF",
"t 	c #B4BBFB",
"u 	c #868DD7",
"v 	c #959AC6",
"w 	c #969FF4",
"x 	c #CCD1FF",
"y 	c #182EFF",
"z 	c #0119FF",
"A 	c #293DFF",
"B 	c #E3E6FD",
"C 	c #6A76ED",
"D 	c #AEAFB9",
"E 	c #7F87D3",
"F 	c #C5CBFE",
"G 	c #C4CAFF",
"H 	c #1026FF",
"I 	c #3C4EFF",
"J 	c #A7AFFF",
"K 	c #ACB4FF",
"L 	c #5E6DFF",
"M 	c #081FFF",
"N 	c #A5ADFF",
"O 	c #9AA3F9",
"P 	c #9A9ECC",
"Q 	c #717AD8",
"R 	c #DBDEFF",
"S 	c #909AFF",
"T 	c #2338FF",
"U 	c #E1E4FF",
"V 	c #F1F2FF",
"W 	c #4E5FFF",
"X 	c #828EFF",
"Y 	c #C3C9FF",
"Z 	c #939BE5",
"` 	c #6671DB",
" .	c #E9EBFF",
"..	c #FAFAFF",
"+.	c #051DFF",
"@.	c #8792FF",
"#.	c #FCFCFF",
"$.	c #6372FF",
"%.	c #CFD4FF",
"&.	c #9199EF",
"*.	c #6974DB",
"=.	c #E7E9FF",
"-.	c #CACFFF",
";.	c #C1C7FF",
">.	c #EFF1FF",
",.	c #4A5BFF",
"'.	c #041CFF",
").	c #8D98FF",
"!.	c #CFD4FE",
"~.	c #868FE4",
"{.	c #767FD8",
"].	c #D7DBFF",
"^.	c #96A0FF",
"/.	c #2237FF",
"(.	c #E6E8FF",
"_.	c #AAB2FF",
":.	c #0B22FF",
"<.	c #0920FF",
"[.	c #B9BFF5",
"}.	c #8189D3",
"|.	c #838BD2",
"1.	c #C2C8FE",
"2.	c #97A1FF",
"3.	c #061DFF",
"4.	c #3245FF",
"5.	c #E4E7FF",
"6.	c #3346FF",
"7.	c #1127FF",
"8.	c #CDD2FD",
"9.	c #8A93E7",
"0.	c #9095C5",
"a.	c #A0A4C2",
"b.	c #8A94F6",
"c.	c #D0D4FF",
"d.	c #6E7CFF",
"e.	c #2D41FF",
"f.	c #ECEEFB",
"g.	c #616DE5",
"h.	c #AEAEB7",
"i.	c #B3B3B6",
"j.	c #7B85E6",
"k.	c #D2D6FC",
"l.	c #98A2FF",
"m.	c #2439FF",
"n.	c #C2C8FF",
"o.	c #F6F7FF",
"p.	c #4859FF",
"q.	c #A8AFFA",
"r.	c #858CD0",
"s.	c #9DA0BE",
"t.	c #6B76E5",
"u.	c #E8E8F2",
"v.	c #EBEDFE",
"w.	c #F5F6FF",
"x.	c #4557FF",
"y.	c #6F7BEF",
"z.	c #ABACB9",
"A.	c #8A90C6",
"B.	c #6E78DC",
"C.	c #C8CBE7",
"D.	c #F9F9F9",
"E.	c #B7BEFF",
"F.	c #5767FF",
"G.	c #707DFF",
"H.	c #A7AFFC",
"I.	c #727EEF",
"J.	c #A8AAC2",
"K.	c #9095C3",
"L.	c #636ED8",
"M.	c #7F88E1",
"N.	c #D0D3F1",
"O.	c #F3F4F9",
"P.	c #F8F9FE",
"Q.	c #F9FAFF",
"R.	c #BAC1FE",
"S.	c #7984F5",
"T.	c #7E87DC",
"U.	c #A3A5BB",
"V.	c #9B9EC0",
"W.	c #737CD4",
"X.	c #646FDC",
"Y.	c #6570DD",
"Z.	c #6B75DB",
"`.	c #8E94CF",
" +	c #B0B1BC",
"                                        ",
"        . + @ # $ % & * = - ;           ",
"      > , ' ) ! ~ { { ] ^ / ( _ :       ",
"    < [ } | 1 2 3 { { { { { 4 5 6       ",
"    7 8 9 0 a b c d e f g h i j k l     ",
"  m n o p q a a a a a a a a r s t u     ",
"  v w { x y a a a a z z a a a A B C D   ",
"  E F { G H a a a I J K L q a M N O P   ",
"  Q R { S a a a T U { { V W a z X Y Z   ",
"  `  ...g a a +.@.] { { #.$.a z X %.&.  ",
"  *.=.-.H a a 0 ;.{ { { >.,.a '.).!.~.  ",
"  {.].^.+.a a /.(.{ { { _.:.a <._.[.}.  ",
"  |.1.2.3.a a 4.3 { { 5.6.a a 7.8.9.0.  ",
"  a.b.c.b a a d.{ { ] ).+.a a e.f.g.h.  ",
"  i.j.k.l.1 m.n.{ { o.p.a a '.@.q.r.    ",
"    s.t.u.v.R 3 { { w.r a a x.G y.z.    ",
"    : A.B.C.D.{ { { ] E.F.G.H.I.J.      ",
"        K.L.M.N.O.P.Q.>.R.S.T.U.        ",
"          : V.W.X.X.Y.Z.`. +            ",
"                                        "};
