/* XPM */
static char * out_puttyField_xpm[] = {
"20 20 181 2",
"  	c #B4B4B4",
". 	c #B7B7B7",
"+ 	c #C8C8C8",
"@ 	c #E3E3E3",
"# 	c #EBEBEB",
"$ 	c #E6E6E6",
"% 	c #DCDCDC",
"& 	c #D2D2D2",
"* 	c #CACACA",
"= 	c #C0C0C0",
"- 	c #B5B7B5",
"; 	c #C3DAC3",
"> 	c #B6E9B6",
", 	c #8FE08F",
"' 	c #5FD25F",
") 	c #58D158",
"! 	c #73D873",
"~ 	c #A0E5A0",
"{ 	c #C1ECC1",
"] 	c #D0DDD0",
"^ 	c #B6B7B6",
"/ 	c #B8BAB8",
"( 	c #94D394",
"_ 	c #90E090",
": 	c #66D466",
"< 	c #4BCD4B",
"[ 	c #27C327",
"} 	c #1DC01D",
"| 	c #2AC42A",
"1 	c #46CB46",
"2 	c #5CD25C",
"3 	c #85DD85",
"4 	c #80DB80",
"5 	c #BDDEBD",
"6 	c #BFBFBF",
"7 	c #B1B5B1",
"8 	c #7CCC7C",
"9 	c #B3E9B3",
"0 	c #AEE8AE",
"a 	c #10BC10",
"b 	c #00B800",
"c 	c #01B801",
"d 	c #0DBC0D",
"e 	c #74D874",
"f 	c #A8DAA8",
"g 	c #B5B6B5",
"h 	c #B4B5B4",
"i 	c #93C893",
"j 	c #A3E4A3",
"k 	c #FAFEFA",
"l 	c #89DE89",
"m 	c #03B903",
"n 	c #22C122",
"o 	c #37C737",
"p 	c #16BE16",
"q 	c #04B904",
"r 	c #08BA08",
"s 	c #93E193",
"t 	c #7AD87A",
"u 	c #B2C3B2",
"v 	c #A7B9A7",
"w 	c #77D377",
"x 	c #FDFEFD",
"y 	c #FFFFFF",
"z 	c #7FDB7F",
"A 	c #2EC52E",
"B 	c #DCF5DC",
"C 	c #E4F7E4",
"D 	c #86DD86",
"E 	c #2FC52F",
"F 	c #13BD13",
"G 	c #91E091",
"H 	c #D2F1D2",
"I 	c #75CA75",
"J 	c #85BC85",
"K 	c #B5EAB5",
"L 	c #FEFFFE",
"M 	c #7BDA7B",
"N 	c #45CB45",
"O 	c #FBFEFB",
"P 	c #E5F8E5",
"Q 	c #DAF5DA",
"R 	c #F2FBF2",
"S 	c #84D984",
"T 	c #A6BEA6",
"U 	c #6FBB6F",
"V 	c #D7F4D7",
"W 	c #6ED76E",
"X 	c #3CC93C",
"Y 	c #EEFAEE",
"Z 	c #B2EAB2",
"` 	c #9BD09B",
" .	c #5EBA5E",
"..	c #E8F9E8",
"+.	c #BEEDBE",
"@.	c #21C121",
"#.	c #30C530",
"$.	c #63D463",
"%.	c #B4EAB4",
"&.	c #CBF1CB",
"*.	c #90D490",
"=.	c #55BB55",
"-.	c #12BD12",
";.	c #DEF6DE",
">.	c #DAF4DA",
",.	c #78C878",
"'.	c #5DBB5D",
").	c #4ACD4A",
"!.	c #25C225",
"~.	c #CAE8CA",
"{.	c #71BC71",
"].	c #6ABB6A",
"^.	c #81DC81",
"/.	c #1BC01B",
"(.	c #1CC01C",
"_.	c #31C631",
":.	c #7EDB7E",
"<.	c #C8F0C8",
"[.	c #FDFDFD",
"}.	c #A5D1A5",
"|.	c #77B777",
"1.	c #7BB97B",
"2.	c #B5E2B5",
"3.	c #D3F3D3",
"4.	c #D5F3D5",
"5.	c #E6F8E6",
"6.	c #50CE50",
"7.	c #FBFBFB",
"8.	c #80C380",
"9.	c #8AB58A",
"0.	c #97B597",
"a.	c #79C879",
"b.	c #FCFCFC",
"c.	c #8BDF8B",
"d.	c #42CA42",
"e.	c #EAF4EA",
"f.	c #5BBA5B",
"g.	c #AAB4AA",
"h.	c #B1B4B1",
"i.	c #64B664",
"j.	c #ABCAAB",
"k.	c #F1F1F1",
"l.	c #FEFEFE",
"m.	c #9FE49F",
"n.	c #18BF18",
"o.	c #FCFEFC",
"p.	c #87D087",
"q.	c #86B686",
"r.	c #5AB75A",
"s.	c #A2C0A2",
"t.	c #E4E4E4",
"u.	c #9EE19E",
"v.	c #07BA07",
"w.	c #F7FAF7",
"x.	c #95D395",
"y.	c #6EBA6E",
"z.	c #B3B4B3",
"A.	c #9DB59D",
"B.	c #61B661",
"C.	c #88B788",
"D.	c #8CC78C",
"E.	c #1CBE1C",
"F.	c #54CF54",
"G.	c #F0FAF0",
"H.	c #CAE4CA",
"I.	c #72C172",
"J.	c #75B575",
"K.	c #ABB4AB",
"L.	c #ADB4AD",
"M.	c #7CB57C",
"N.	c #6DB66D",
"O.	c #5EB95E",
"P.	c #45B945",
"Q.	c #66BB66",
"R.	c #70BC70",
"S.	c #6FB96F",
"T.	c #96B596",
"U.	c #AEB4AE",
"V.	c #A7B4A7",
"W.	c #A4B4A4",
"X.	c #B2B4B2",
"                                        ",
"          . + @ # $ % & * = .           ",
"        - ; > , ' ) ' ! ~ { ] ^         ",
"      / ( _ : < [ } | 1 2 3 4 5 6       ",
"    7 8 9 0 a b b b b b c d e 4 f g     ",
"  h i j k l m b m n o p q b r s t u     ",
"  v w x y z b b A B y C D E F G H I g   ",
"  J K y L M b b N k y y O P Q R L S T   ",
"  U V y k W b b X Y y y y y y y y Z `   ",
"   ...+.l @.b b q #.$.%.L y y y y &.*.  ",
"  =._ -.b b b b b b b } ;.y y y y >.,.  ",
"  '.).b b b b b b b b !.C y y y y ~.{.  ",
"  ].^./.(.n r b b _.:.<.y y y y [.}.|.  ",
"  1.2.3.4.5.6.b b e y y y y y y 7.8.9.  ",
"  0.a.b.y y c.b b d.y y y y y y e.f.g.  ",
"  h.i.j.k.l.m.b b n.y y y y y o.p.q.    ",
"    g.r.s.t.u.b b v.y y y y w.x.y.h.    ",
"    z.A.B.C.D.E.F F.y x G.H.I.J.K.      ",
"        L.M.N.O.P.Q.{.{.R.S.T.z.        ",
"            U.V.W.W.W.W.K.X.            "};
