/* XPM */
static char * puttyNode_xpm[] = {
"32 32 242 2",
"  	c #B4B4B4",
". 	c #B5B5B5",
"+ 	c #B6B6B6",
"@ 	c #BCBECB",
"# 	c #9CA4ED",
"$ 	c #6B79FD",
"% 	c #394BFF",
"& 	c #3245FE",
"* 	c #3144FD",
"= 	c #3346FA",
"- 	c #3346F7",
"; 	c #3143F5",
"> 	c #3E4FEF",
", 	c #6C77DE",
"' 	c #989CC8",
") 	c #AAACBF",
"! 	c #6A77F1",
"~ 	c #2438FF",
"{ 	c #7683FF",
"] 	c #B6BDFF",
"^ 	c #F2F3FF",
"/ 	c #FFFFFF",
"( 	c #EBEDFF",
"_ 	c #A9B1FF",
": 	c #6170FE",
"< 	c #384AF8",
"[ 	c #858CCF",
"} 	c #8B92CF",
"| 	c #2136FD",
"1 	c #939DFF",
"2 	c #F7F8FF",
"3 	c #E4E7FF",
"4 	c #606FF9",
"5 	c #3F4FEA",
"6 	c #ACADB7",
"7 	c #737DD7",
"8 	c #2E41FD",
"9 	c #DCDFFF",
"0 	c #DBDEFF",
"a 	c #6674FF",
"b 	c #4657FF",
"c 	c #B3BAFF",
"d 	c #9EA7FA",
"e 	c #293CF3",
"f 	c #A5A7BC",
"g 	c #8C92CB",
"h 	c #2A3EFC",
"i 	c #F1F2FF",
"j 	c #0A21FF",
"k 	c #0018FF",
"l 	c #071EFF",
"m 	c #EEF0FF",
"n 	c #B0B7FA",
"o 	c #3446F2",
"p 	c #B1B2B5",
"q 	c #AAACBC",
"r 	c #2236FC",
"s 	c #D8DCFF",
"t 	c #2D41FF",
"u 	c #8A95FF",
"v 	c #B1B8FF",
"w 	c #6775FF",
"x 	c #293DFF",
"y 	c #1026FF",
"z 	c #2136FF",
"A 	c #5161FF",
"B 	c #B5BCFF",
"C 	c #7783FC",
"D 	c #5864DF",
"E 	c #6774EC",
"F 	c #8C97FE",
"G 	c #061DFF",
"H 	c #4A5BFF",
"I 	c #E8EAFF",
"J 	c #FCFCFF",
"K 	c #2236F6",
"L 	c #A2A4BC",
"M 	c #B4B5C7",
"N 	c #2438FE",
"O 	c #F6F7FF",
"P 	c #1F34FF",
"Q 	c #2338FF",
"R 	c #E1E4FF",
"S 	c #8892EC",
"T 	c #4D5BE0",
"U 	c #8791F0",
"V 	c #818DFF",
"W 	c #4456FF",
"X 	c #263AFF",
"Y 	c #F5F6FF",
"Z 	c #EBECF0",
"` 	c #192EF7",
" .	c #AFB0B6",
"..	c #4758FE",
"+.	c #D0D4FF",
"@.	c #4859FF",
"#.	c #8D98FF",
"$.	c #FCFCFC",
"%.	c #5463F4",
"&.	c #8289CA",
"*.	c #283CFF",
"=.	c #142AFF",
"-.	c #B0B7FF",
";.	c #FDFDFF",
">.	c #FEFEFF",
",.	c #DADDFF",
"'.	c #808CFF",
").	c #051DFF",
"!.	c #3F51FF",
"~.	c #A6AEFB",
"{.	c #505EE5",
"].	c #8C92C4",
"^.	c #5868FF",
"/.	c #0119FF",
"(.	c #081FFF",
"_.	c #CDD2FF",
":.	c #949EFF",
"<.	c #E9EBFF",
"[.	c #2A3DF9",
"}.	c #7079D1",
"|.	c #8F9AFF",
"1.	c #828EFF",
"2.	c #FEFEFE",
"3.	c #1A30FD",
"4.	c #B3B3B4",
"5.	c #5360DC",
"6.	c #A8B0FF",
"7.	c #3447FF",
"8.	c #0E25FF",
"9.	c #EFF1FF",
"0.	c #F8F9FF",
"a.	c #0B22FF",
"b.	c #3749FD",
"c.	c #9EA1BD",
"d.	c #505DDE",
"e.	c #CFD4FF",
"f.	c #1A30FF",
"g.	c #4858F7",
"h.	c #8F94C3",
"i.	c #6A74D4",
"j.	c #8B96FF",
"k.	c #717EFF",
"l.	c #8C97FF",
"m.	c #96A0FF",
"n.	c #FAFAFA",
"o.	c #2437F5",
"p.	c #A7A9B9",
"q.	c #868DCA",
"r.	c #3548FF",
"s.	c #BDC3FF",
"t.	c #F0F1FF",
"u.	c #1E33FF",
"v.	c #4D5EFF",
"w.	c #E2E2E3",
"x.	c #152AF7",
"y.	c #A6A8BC",
"z.	c #2439FF",
"A.	c #5B6AFF",
"B.	c #7D89FF",
"C.	c #A9ACD0",
"D.	c #2C3EED",
"E.	c #3447FE",
"F.	c #394CFF",
"G.	c #0D24FF",
"H.	c #B2B9FF",
"I.	c #ADB5FF",
"J.	c #EBEBEB",
"K.	c #6570D9",
"L.	c #5F6BD7",
"M.	c #717DF2",
"N.	c #A0A9FF",
"O.	c #7582FF",
"P.	c #4B5CFF",
"Q.	c #3649FF",
"R.	c #031BFF",
"S.	c #EDEFFF",
"T.	c #DEDEDE",
"U.	c #2B3EED",
"V.	c #979BC0",
"W.	c #A8ABCE",
"X.	c #C7CCFF",
"Y.	c #A8ADD8",
"Z.	c #2437F0",
"`.	c #4F5EF6",
" +	c #B8BFFE",
".+	c #2C40FF",
"++	c #162CFF",
"@+	c #7A87FF",
"#+	c #3849EC",
"$+	c #8087C9",
"%+	c #979BC1",
"&+	c #293CF7",
"*+	c #EEEFF9",
"=+	c #C2C8FF",
"-+	c #D9DDFF",
";+	c #5767FF",
">+	c #9EA5F2",
",+	c #2E40EC",
"'+	c #6A74D3",
")+	c #4756EB",
"!+	c #EAEAEA",
"~+	c #7986FF",
"{+	c #CBCFFD",
"]+	c #1E32F5",
"^+	c #A4A6BB",
"/+	c #4B59E0",
"(+	c #4655E6",
"_+	c #D2D3D9",
":+	c #F4F4F4",
"<+	c #4E5FFF",
"[+	c #0920FF",
"}+	c #6A78FF",
"|+	c #A8AFF6",
"1+	c #1C31F4",
"2+	c #9397C2",
"3+	c #646FD5",
"4+	c #283BEE",
"5+	c #959BD0",
"6+	c #FDFDFD",
"7+	c #D8DBF7",
"8+	c #5361EA",
"9+	c #2D3FEC",
"0+	c #A2A5BB",
"a+	c #9498C1",
"b+	c #3B4BE6",
"c+	c #3042EC",
"d+	c #7D87E6",
"e+	c #C8CCEF",
"f+	c #F3F3F3",
"g+	c #F9F9F9",
"h+	c #9CA5FE",
"i+	c #4B5BF5",
"j+	c #293BF0",
"k+	c #767ECE",
"l+	c #B2B2B5",
"m+	c #9DA0BE",
"n+	c #6B74D3",
"o+	c #3D4DE6",
"p+	c #273AEF",
"q+	c #3C4CE7",
"r+	c #6671D5",
"s+	c #9297C2",
"                                                                ",
"                      . . .                                     ",
"                  + @ # $ % & * = - ; > , ' .                   ",
"                ) ! ~ { ] ^ / / / / / ( _ : < [                 ",
"              } | 1 2 / / / / / / / / / / / 3 4 5 6             ",
"            7 8 9 0 a b c / / / / / / / / / / / d e f           ",
"          g h i c j k k l m / / / / / / / / / / / n o p         ",
"        q r s / t k k k k u ^ v w x y l z A B / / / C D         ",
"        E F / / G k k k k k k k k k k k k k k H I / J K L       ",
"      M N O / / P k k k k k k k k k k k k k k k Q R / S T       ",
"      U V / / / W k k k k k k k k k k k k k k k k X Y Z `  .    ",
"      ..+./ / / @.k k k k k k k k G G k k k k k k k #.$.%.&.    ",
"    6 X / / / / *.k k k k k k =.-.;.>.,.'.).k k k k !./ ~.{.    ",
"    ].^./ / / 3 /.k k k k k (._./ / / / / :.k k k k =./ <.[.    ",
"    }.'./ / / |.k k k k k k 1.2.2./ / / / ( k k k k )./ / 3.4.  ",
"    5.6./ / / 7.k k k k k 8.9./ / / / / / 0.k k k k a./ / b.c.  ",
"    d.-./ / e.k k k k k k ^./ / / / / / / 9 k k k k f./ / g.h.  ",
"    i.j./ / k.k k k k k k l./ / / / / / / m.k k k k x / n.o.p.  ",
"    q.a / / r.k k k k k k s./ / / / / / t.u.k k k k v./ w.x.    ",
"    y.r./ / z.k k k k k k 3 / / / / / / A.k k k k k B.n.C.D.    ",
"      E.<./ F.k k k k k G./ / / / / / H.k k k k k k I.J.K.L.    ",
"      M.N./ O.k k k k k P./ / / / / / Q.k k k k k R.S.T.U.V.    ",
"      W.F./ R 8.k k k k :./ / / / / X.k k k k k k b / Y.Z.      ",
"        `. +/ X..+k k ++t./ / / / / @+k k k k k k ] $.#+$+      ",
"        %+&+*+/ / =+:.-+/ / / / / / ;+k k k k k H / >+,+        ",
"          '+)+!+$./ / / / / / / / / ~+k k k k x ( {+]+^+        ",
"            /+(+_+:+2./ / / / / / / m <+[+=.}+m |+1+2+          ",
"              3+4+5+!+6+/ / / / / / / / / / 7+8+9+0+            ",
"                a+b+c+d+e+f+g+2./ / / -+h+i+j+k+l+              ",
"                    m+n+o+p+p+p+p+p+p+q+r+s+                    ",
"                                                                ",
"                                                                "};
