/* XPM */
static char * puttyField_xpm[] = {
"32 32 215 2",
"  	c #B4B4B4",
". 	c #B5B5B5",
"+ 	c #B6B6B6",
"@ 	c #9FC59F",
"# 	c #7BD07B",
"$ 	c #4ACB4A",
"% 	c #37C737",
"& 	c #37C637",
"* 	c #35C535",
"= 	c #32C332",
"- 	c #30C030",
"; 	c #30BE30",
"> 	c #57C057",
", 	c #85C085",
"' 	c #B0BBB0",
") 	c #7EB97E",
"! 	c #32C132",
"~ 	c #5DD25D",
"{ 	c #C5EFC5",
"] 	c #B3EAB3",
"^ 	c #63D463",
"/ 	c #4ECE4E",
"( 	c #46CB46",
"_ 	c #7CDB7C",
": 	c #C3EEC3",
"< 	c #C7EFC7",
"[ 	c #7DDB7D",
"} 	c #2BC42B",
"| 	c #69CB69",
"1 	c #ABBBAB",
"2 	c #ABB4AB",
"3 	c #3DBA3D",
"4 	c #5DCE5D",
"5 	c #E9F9E9",
"6 	c #61D361",
"7 	c #01B801",
"8 	c #00B800",
"9 	c #07BA07",
"0 	c #57D057",
"a 	c #CFF2CF",
"b 	c #9BE39B",
"c 	c #25C125",
"d 	c #8DBD8D",
"e 	c #A7B4A7",
"f 	c #25B925",
"g 	c #99DD99",
"h 	c #FFFFFF",
"i 	c #78D978",
"j 	c #5FD25F",
"k 	c #EAF9EA",
"l 	c #32C532",
"m 	c #79C179",
"n 	c #B1B4B1",
"o 	c #31B931",
"p 	c #A4DEA4",
"q 	c #38C838",
"r 	c #F9FDF9",
"s 	c #2CC32C",
"t 	c #9AC69A",
"u 	c #5DB75D",
"v 	c #6ECE6E",
"w 	c #0BBB0B",
"x 	c #2AC42A",
"y 	c #45CB45",
"z 	c #19BF19",
"A 	c #8FE08F",
"B 	c #D7F4D7",
"C 	c #23C123",
"D 	c #B0BAB0",
"E 	c #22BD22",
"F 	c #F6FCF6",
"G 	c #FEFFFE",
"H 	c #6ED76E",
"I 	c #FDFEFD",
"J 	c #C6EFC6",
"K 	c #02B902",
"L 	c #80DC80",
"M 	c #67C267",
"N 	c #5EBD5E",
"O 	c #8DDC8D",
"P 	c #FCFEFC",
"Q 	c #DAF5DA",
"R 	c #CDF1CD",
"S 	c #53CF53",
"T 	c #26C326",
"U 	c #BCECBC",
"V 	c #F1FBF1",
"W 	c #1DBD1D",
"X 	c #ABB6AB",
"Y 	c #26C026",
"Z 	c #F7FDF7",
"` 	c #68D068",
" .	c #7EC07E",
"..	c #95B595",
"+.	c #46CA46",
"@.	c #EBF9EB",
"#.	c #BCEBBC",
"$.	c #4AC64A",
"%.	c #63B663",
"&.	c #91E091",
"*.	c #D0F2D0",
"=.	c #B4EAB4",
"-.	c #FBFEFB",
";.	c #1BBF1B",
">.	c #BEC0BE",
",.	c #44B644",
"'.	c #BFEDBF",
").	c #F3FCF3",
"!.	c #CCF1CC",
"~.	c #55D055",
"{.	c #72D872",
"].	c #ADE8AD",
"^.	c #3DC93D",
"/.	c #C0DAC0",
"(.	c #27B727",
"_.	c #E7F8E7",
":.	c #05B905",
"<.	c #4ACD4A",
"[.	c #67D567",
"}.	c #A8E0A8",
"|.	c #17B717",
"1.	c #3BC83B",
"2.	c #8EE08E",
"3.	c #87D987",
"4.	c #06BA06",
"5.	c #8ED48E",
"6.	c #43B743",
"7.	c #C4EFC4",
"8.	c #24C224",
"9.	c #51CF51",
"0.	c #54CE54",
"a.	c #98C398",
"b.	c #61B761",
"c.	c #99E399",
"d.	c #82DC82",
"e.	c #42CA42",
"f.	c #70D770",
"g.	c #A3E5A3",
"h.	c #28C028",
"i.	c #A8B6A8",
"j.	c #91B691",
"k.	c #52CF52",
"l.	c #8CDF8C",
"m.	c #A1E5A1",
"n.	c #C9F0C9",
"o.	c #C8F0C8",
"p.	c #1ABF1A",
"q.	c #E0F3E0",
"r.	c #25BB25",
"s.	c #B3B4B3",
"t.	c #25C225",
"u.	c #FAFEFA",
"v.	c #71D771",
"w.	c #A6E6A6",
"x.	c #89D689",
"y.	c #5BB85B",
"z.	c #62CB62",
"A.	c #A5E6A5",
"B.	c #9DE49D",
"C.	c #2FC02F",
"D.	c #95B695",
"E.	c #AFC4AF",
"F.	c #30C530",
"G.	c #B5EAB5",
"H.	c #43BF43",
"I.	c #60CA60",
"J.	c #94E194",
"K.	c #F0FBF0",
"L.	c #29C329",
"M.	c #A1BEA1",
"N.	c #ADB5AD",
"O.	c #2ABD2A",
"P.	c #C4EBC4",
"Q.	c #8ED78E",
"R.	c #9AB59A",
"S.	c #22BA22",
"T.	c #AFDDAF",
"U.	c #FCFCFC",
"V.	c #C1EEC1",
"W.	c #14BE14",
"X.	c #49CC49",
"Y.	c #78D878",
"Z.	c #BFBFBF",
"`.	c #A0B4A0",
" +	c #2AB92A",
".+	c #6DC86D",
"++	c #E8F1E8",
"@+	c #E9F8E9",
"#+	c #11BD11",
"$+	c #7ADA7A",
"%+	c #9EDE9E",
"&+	c #BABABA",
"*+	c #AFB4AF",
"=+	c #68B668",
"-+	c #23BA23",
";+	c #6ACF6A",
">+	c #D4F2D4",
",+	c #92E192",
"'+	c #AFE9AF",
")+	c #F2FBF2",
"!+	c #BAECBA",
"~+	c #2CC42C",
"{+	c #6DD36D",
"]+	c #B4C9B4",
"^+	c #B0B4B0",
"/+	c #84B884",
"(+	c #63C563",
"_+	c #39C539",
":+	c #34C534",
"<+	c #36C636",
"[+	c #3FCA3F",
"}+	c #74D874",
"|+	c #AEE7AE",
"1+	c #D5DED5",
"2+	c #B9B9B9",
"                                                                ",
"                      . . .                                     ",
"                  + @ # $ % & * = - ; > , ' .                   ",
"                ) ! ~ { ] ^ / ( ~ _ : < [ } | 1                 ",
"            2 3 4 5 6 7 8 8 8 8 8 8 8 9 0 a b c d               ",
"          e f g h i 8 8 8 8 8 8 8 8 8 8 8 8 j k l m .           ",
"        n o p h h } 8 8 8 8 8 8 8 8 8 8 8 8 8 q r s t           ",
"        u v h h h w 8 8 8 8 8 x y z 8 8 8 8 8 8 A B C D         ",
"      e E F h h G 7 8 8 8 8 H G h I J 0 K 8 8 8 ~ h L M         ",
"      N O h h h P 8 8 8 8 8 Q h h h h h R S T } U h V W X       ",
"      Y V h h h Z 8 8 8 8 8 Z h h h h h h h h h h h h `  .      ",
"    ..+.h h h h @.8 8 8 8 8 Z h h h h h h h h h h h h #.$..     ",
"    %.&.h h h h *.8 8 8 8 8 =.h h h h h h h h h h h h -.;.>.    ",
"    ,.'.h h ).!.~.8 8 8 8 8 9 S {.].I h h h h h h h h h ^./.    ",
"    (._.k 6 :.8 8 8 8 8 8 8 8 8 8 8 <.-.h h h h h h h h [.}.    ",
"    |.h 1.8 8 8 8 8 8 8 8 8 8 8 8 8 8 ].h h h h h h h h 2.3.    ",
"    (.k 4.8 8 8 8 8 8 8 8 8 8 8 8 8 8 ].h h h h h h h h [ 5.    ",
"    6.7.8.8 8 8 8 8 8 8 8 8 8 8 8 8 9.I h h h h h h h h 0.a.    ",
"    b.c.d.8 8 8 8 8 8 8 8 8 8 e.f.g.P h h h h h h h h h h.i.    ",
"    j.k.-.].l.m.n.o.p.8 8 8 8 < h h h h h h h h h h h q.r.      ",
"    s.t.u.h h h h h v.8 8 8 8 w.h h h h h h h h h h h x.y.      ",
"      z.A.h h h h h B.8 8 8 8 {.h h h h h h h h h h h C.D.      ",
"      E.F.I h h h h G.8 8 8 8 1.h h h h h h h h h h ].H.        ",
"        I.J.h h h h 7.8 8 8 8 p.h h h h h h h h h K.L.M.        ",
"        N.O.P.h h h J 8 8 8 8 4.h h h h h h h h -.y Q.+         ",
"          R.S.T.U.h V.8 8 8 8 W.h h h h h h h @.X.Y.Z.          ",
"            `. +.+++@+#+8 8 8 $+h h h h h -.w.L.%+&+            ",
"              *+=+-+;+>+,+{.'+G h h )+!+[ ~+{+]+.               ",
"                  ^+/+(+_+:+<+% % % [+}+|+1+2+                  ",
"                                  . . . .                       ",
"                                                                ",
"                                                                "};
