/* XPM */
static char * out_puttyDeformer_xpm[] = {
"20 20 190 2",
"  	c #B4B4B4",
". 	c #B7B7B7",
"+ 	c #C8C8C8",
"@ 	c #E3E3E3",
"# 	c #EBEBEB",
"$ 	c #E6E6E6",
"% 	c #DCDCDC",
"& 	c #D2D2D2",
"* 	c #CACACA",
"= 	c #C0C0C0",
"- 	c #B8B6B6",
"; 	c #E2C9C9",
"> 	c #FCB6B6",
", 	c #FF9494",
"' 	c #FF8080",
") 	c #FF7A7A",
"! 	c #FF5A5A",
"~ 	c #FF6969",
"{ 	c #FFA6A6",
"] 	c #FCCACA",
"^ 	c #E1D8D8",
"/ 	c #BABABA",
"( 	c #E9A4A4",
"_ 	c #FE8484",
": 	c #FFB8B8",
"< 	c #FFE6E6",
"[ 	c #FFFEFE",
"} 	c #FFC8C8",
"| 	c #FF2424",
"1 	c #FF2E2E",
"2 	c #FF5F5F",
"3 	c #FF9999",
"4 	c #FE8C8C",
"5 	c #E8D2D2",
"6 	c #BFBFBF",
"7 	c #B6B2B2",
"8 	c #E79191",
"9 	c #FE9999",
"0 	c #FFF6F6",
"a 	c #FFFFFF",
"b 	c #FFC3C3",
"c 	c #FF1313",
"d 	c #FF0000",
"e 	c #FF0505",
"f 	c #FF7373",
"g 	c #FFD6D6",
"h 	c #FF7F7F",
"i 	c #E9D2D2",
"j 	c #B6B6B6",
"k 	c #B5B5B5",
"l 	c #D6ADAD",
"m 	c #FD8282",
"n 	c #FFF5F5",
"o 	c #FFF2F2",
"p 	c #FF5151",
"q 	c #FF0E0E",
"r 	c #FFD2D2",
"s 	c #FC8D8D",
"t 	c #C6BEBE",
"u 	c #BAB6B6",
"v 	c #F67C7C",
"w 	c #FFE0E0",
"x 	c #FFB7B7",
"y 	c #FF6565",
"z 	c #FE9797",
"A 	c #E0B3B3",
"B 	c #C89D9D",
"C 	c #FE9494",
"D 	c #FFEEEE",
"E 	c #FF2121",
"F 	c #FF1E1E",
"G 	c #FFCCCC",
"H 	c #FFDBDB",
"I 	c #FA8F8F",
"J 	c #D37F7F",
"K 	c #FFC0C0",
"L 	c #FFDFDF",
"M 	c #FF9E9E",
"N 	c #FF8F8F",
"O 	c #FF2C2C",
"P 	c #FF8585",
"Q 	c #DBCFCF",
"R 	c #D87070",
"S 	c #FFD8D8",
"T 	c #FFACAC",
"U 	c #FF3535",
"V 	c #FF0D0D",
"W 	c #FF0707",
"X 	c #FF0404",
"Y 	c #FF0101",
"Z 	c #FF3030",
"` 	c #FFFBFB",
" .	c #E9BFBF",
"..	c #DC6666",
"+.	c #FF8E8E",
"@.	c #FF1010",
"#.	c #FF1414",
"$.	c #FFDDDD",
"%.	c #FEB1B1",
"&.	c #DFA0A0",
"*.	c #DC6767",
"=.	c #FFD5D5",
"-.	c #FF1B1B",
";.	c #FF4D4D",
">.	c #FF6161",
",.	c #FF6A6A",
"'.	c #FF2A2A",
").	c #FF0B0B",
"!.	c #FFB2B2",
"~.	c #F6A3A3",
"{.	c #CC9595",
"].	c #D87171",
"^.	c #FED5D5",
"/.	c #FF9797",
"(.	c #FF0606",
"_.	c #FF3F3F",
":.	c #FFD0D0",
"<.	c #FFF0F0",
"[.	c #FFF9F9",
"}.	c #FF9898",
"|.	c #FE9C9C",
"1.	c #E97C7C",
"2.	c #BFA1A1",
"3.	c #CF7F7F",
"4.	c #F3AFAF",
"5.	c #FF9696",
"6.	c #FFB5B5",
"7.	c #FD9494",
"8.	c #E46363",
"9.	c #B5B1B1",
"0.	c #BEA0A0",
"a.	c #E87070",
"b.	c #FD8D8D",
"c.	c #FF4242",
"d.	c #FFF8F8",
"e.	c #FFFCFC",
"f.	c #FFE2E2",
"g.	c #FF5757",
"h.	c #FF1C1C",
"i.	c #FA8E8E",
"j.	c #D08383",
"k.	c #B4B3B3",
"l.	c #D16E6E",
"m.	c #E17C7C",
"n.	c #FE1A1A",
"o.	c #FF0303",
"p.	c #FF2727",
"q.	c #FF4F4F",
"r.	c #FF5353",
"s.	c #FF0909",
"t.	c #FF7E7E",
"u.	c #EE7575",
"v.	c #BCA5A5",
"w.	c #B8AAAA",
"x.	c #DA5B5B",
"y.	c #DD6B6B",
"z.	c #F93636",
"A.	c #FD9595",
"B.	c #ED8181",
"C.	c #CC8C8C",
"D.	c #BBA3A3",
"E.	c #D66464",
"F.	c #D76666",
"G.	c #E66767",
"H.	c #FB3E3E",
"I.	c #FE2323",
"J.	c #FF1D1D",
"K.	c #FF1F1F",
"L.	c #FF3333",
"M.	c #FF6F6F",
"N.	c #F29D9D",
"O.	c #E16D6D",
"P.	c #CA8080",
"Q.	c #B5B3B3",
"R.	c #B6AFAF",
"S.	c #C78888",
"T.	c #D46868",
"U.	c #D66D6D",
"V.	c #D96A6A",
"W.	c #DE5F5F",
"X.	c #DD6363",
"Y.	c #D96F6F",
"Z.	c #D97070",
"`.	c #D66E6E",
" +	c #BE9D9D",
".+	c #B6B0B0",
"++	c #B9A8A8",
"@+	c #BBA4A4",
"#+	c #BAA4A4",
"$+	c #B5B2B2",
"                                        ",
"          . + @ # $ % & * = .           ",
"        - ; > , ' ) ! ~ { ] ^ .         ",
"      / ( _ : < [ } | 1 2 3 4 5 6       ",
"    7 8 9 0 a a a b c d e f g h i j     ",
"  k l m n a a a a o p d d q g r s t     ",
"  u v w a a a a a a x d d d y n z A j   ",
"  B C [ a a a a a a D E d d F G H I 6   ",
"  J K a a a [ L x M N O d d d P [ h Q   ",
"  R S a n T U V W e X Y d d d Z ` M  .  ",
"  ..< [ +.@.d d d d d d d d d #.$.%.&.  ",
"  *.< =.#.d d Y -.;.>.,.'.d d ).!.~.{.  ",
"  ].^./.(.d d _.:.<.[.[ }.d d W |.1.2.  ",
"  3.4.' Y d d 5.a a a a 6.d d W 7.8.9.  ",
"  0.a.b.e d d c.=.d.e.f.g.d d h.i.j.    ",
"  k.l.m.n.d d o.p.q.r.U (.d s.t.u.v.    ",
"    w.x.y.z.Y d d d d d d h.A.B.C.      ",
"      D.E.F.G.H.I.J.K.L.M.N.O.P.Q.      ",
"        R.S.T.U.V.W.X.Y.Z.`. +          ",
"            .+++@+@+@+#+w.$+            "};
