/* XPM */
static char * puttyDeformer_xpm[] = {
"32 32 233 2",
"  	c #B4B4B4",
". 	c #B5B5B5",
"+ 	c #B6B6B6",
"@ 	c #CCB8B8",
"# 	c #EE9696",
"$ 	c #FD6464",
"% 	c #FF3737",
"& 	c #FE3535",
"* 	c #FC3333",
"= 	c #FA3232",
"- 	c #F83030",
"; 	c #F62D2D",
"> 	c #EE4444",
", 	c #DC7373",
"' 	c #C5A1A1",
") 	c #C1A5A5",
"! 	c #F26060",
"~ 	c #FF2E2E",
"{ 	c #FF8282",
"] 	c #FFC4C4",
"^ 	c #FFF9F9",
"/ 	c #FFFFFF",
"( 	c #FFA1A1",
"_ 	c #FF2B2B",
": 	c #FF4141",
"< 	c #FFAFAF",
"[ 	c #FFA2A2",
"} 	c #FE4545",
"| 	c #F64646",
"1 	c #C99595",
"2 	c #D28282",
"3 	c #FD2525",
"4 	c #FFFBFB",
"5 	c #FF1515",
"6 	c #FF0000",
"7 	c #FF1D1D",
"8 	c #FFD2D2",
"9 	c #FFC9C9",
"0 	c #FC3C3C",
"a 	c #DF6161",
"b 	c #B5B3B3",
"c 	c #DB6868",
"d 	c #FC3636",
"e 	c #FFE6E6",
"f 	c #FF1B1B",
"g 	c #FF1919",
"h 	c #FFE8E8",
"i 	c #FFFAFA",
"j 	c #FC6A6A",
"k 	c #EC4343",
"l 	c #B6B4B4",
"m 	c #CE8383",
"n 	c #FC3131",
"o 	c #FFF6F6",
"p 	c #FF8383",
"q 	c #FF5454",
"r 	c #FC6B6B",
"s 	c #E56565",
"t 	c #BEA5A5",
"u 	c #FC1F1F",
"v 	c #FFDEDE",
"w 	c #FFF5F5",
"x 	c #FF1616",
"y 	c #FD3A3A",
"z 	c #CB8D8D",
"A 	c #EE5F5F",
"B 	c #FE9191",
"C 	c #FF7D7D",
"D 	c #FF4343",
"E 	c #FFCECE",
"F 	c #F33131",
"G 	c #B4B3B3",
"H 	c #C8B0B0",
"I 	c #FE2121",
"J 	c #FFDBDB",
"K 	c #FFC5C5",
"L 	c #F54545",
"M 	c #C98686",
"N 	c #F18181",
"O 	c #FF8181",
"P 	c #FF3535",
"Q 	c #FF5252",
"R 	c #F4AEAE",
"S 	c #E94B4B",
"T 	c #FE4040",
"U 	c #FFCFCF",
"V 	c #FF8585",
"W 	c #FF0202",
"X 	c #FFDFDF",
"Y 	c #FCF5F5",
"Z 	c #FB1F1F",
"` 	c #B6B3B3",
" .	c #B8A9A9",
"..	c #FF2121",
"+.	c #FFFEFE",
"@.	c #FF9696",
"#.	c #FF7171",
"$.	c #FF5A5A",
"%.	c #FF4848",
"&.	c #FF4040",
"*.	c #FF2929",
"=.	c #FF8484",
"-.	c #FD5050",
";.	c #CE9797",
">.	c #C58A8A",
",.	c #FF5555",
"'.	c #FFD8D8",
").	c #FF6161",
"!.	c #FF0C0C",
"~.	c #FF2D2D",
"{.	c #EC8888",
"].	c #D16D6D",
"^.	c #FF8A8A",
"/.	c #FF0404",
"(.	c #FFE5E5",
"_.	c #FFABAB",
":.	c #F96C6C",
"<.	c #DD5151",
"[.	c #FFA5A5",
"}.	c #FFD1D1",
"|.	c #FC4848",
"1.	c #DE5050",
"2.	c #FFA8A8",
"3.	c #FFDADA",
"4.	c #FF0505",
"5.	c #FF7B7B",
"6.	c #FFC2C2",
"7.	c #F55454",
"8.	c #D36C6C",
"9.	c #FF7272",
"0.	c #FF6A6A",
"a.	c #FFACAC",
"b.	c #FFD3D3",
"c.	c #FF5858",
"d.	c #FC9898",
"e.	c #E16767",
"f.	c #C98989",
"g.	c #FF5959",
"h.	c #FF2F2F",
"i.	c #FF2222",
"j.	c #FFE1E1",
"k.	c #FFB9B9",
"l.	c #FF3E3E",
"m.	c #F26565",
"n.	c #CD7B7B",
"o.	c #BAACAC",
"p.	c #FFFDFD",
"q.	c #FF0D0D",
"r.	c #FFE7E7",
"s.	c #FAFAFA",
"t.	c #F42626",
"u.	c #BAA5A5",
"v.	c #FE4949",
"w.	c #FFC7C7",
"x.	c #FFB1B1",
"y.	c #FF4F4F",
"z.	c #EDCFCF",
"A.	c #EF2B2B",
"B.	c #EF8E8E",
"C.	c #FF6969",
"D.	c #FF1E1E",
"E.	c #FF3B3B",
"F.	c #FF6565",
"G.	c #FF9E9E",
"H.	c #EE7575",
"I.	c #D66464",
"J.	c #C7C0C0",
"K.	c #FF2727",
"L.	c #FFDDDD",
"M.	c #FF6666",
"N.	c #FF3030",
"O.	c #FFA6A6",
"P.	c #FFE2E2",
"Q.	c #FFF4F4",
"R.	c #FFCCCC",
"S.	c #FF5F5F",
"T.	c #F82020",
"U.	c #B8ABAB",
"V.	c #ED9494",
"W.	c #FF4D4D",
"X.	c #FE7575",
"Y.	c #DD6767",
"Z.	c #B5B4B4",
"`.	c #EE4F4F",
" +	c #FC7474",
".+	c #FFC3C3",
"++	c #FF1313",
"@+	c #FF3131",
"#+	c #FFE4E4",
"$+	c #FA3D3D",
"%+	c #B7B3B3",
"&+	c #B6B0B0",
"*+	c #EF3737",
"=+	c #F66969",
"-+	c #FCEBEB",
";+	c #FF0303",
">+	c #FF0606",
",+	c #FF7474",
"'+	c #FE2E2E",
")+	c #C4AFAF",
"!+	c #B5B1B1",
"~+	c #DE5B5B",
"{+	c #F72E2E",
"]+	c #F7B9B9",
"^+	c #FEDDDD",
"/+	c #FF7E7E",
"(+	c #FF0707",
"_+	c #FF3333",
":+	c #FFE0E0",
"<+	c #FFE9E9",
"[+	c #FF6E6E",
"}+	c #FB4444",
"|+	c #BFADAD",
"1+	c #C49191",
"2+	c #EA4343",
"3+	c #FB3131",
"4+	c #FE8A8A",
"5+	c #FFC6C6",
"6+	c #FFCBCB",
"7+	c #FFD9D9",
"8+	c #FFEDED",
"9+	c #FFB0B0",
"0+	c #FF6767",
"a+	c #FD2F2F",
"b+	c #DF7F7F",
"c+	c #BFA5A5",
"d+	c #E48787",
"e+	c #F76060",
"f+	c #FF3636",
"g+	c #FF4242",
"h+	c #FE7D7D",
"i+	c #E8A7A7",
"j+	c #BAB7B7",
"                                                                ",
"                      . . .                                     ",
"                  + @ # $ % & * = - ; > , ' .                   ",
"                ) ! ~ { ] ^ / / ( _ : < [ } | 1                 ",
"              2 3 [ 4 / / / / / 5 6 6 6 7 8 9 0 a b             ",
"            c d e / / / / / / / f 6 6 6 6 g h i j k l           ",
"          m n o / / / / / / / / p 6 6 6 6 6 q / / r s           ",
"        t u v / / / / / / / / / w x 6 6 6 6 6 ] / ^ y z         ",
"        A B / / / / / / / / / / / C 6 6 6 6 6 D / / E F G       ",
"      H I o / / / / / / / / / / / J 6 6 6 6 6 6 K / / L M       ",
"      N O / / / / / / / / / / / / / P 6 6 6 6 6 Q / / R S       ",
"      T U / / / / / / / / / / / / / V 6 6 6 6 6 W X / Y Z `     ",
"     ...+./ / / / / / i K @.#.$.%.&.*.6 6 6 6 6 6 =./ / -.;.    ",
"    >.,./ / / / / '.).!.6 6 6 6 6 6 6 6 6 6 6 6 6 ~./ / =.{.    ",
"    ].C / / / / ^./.6 6 6 6 6 6 6 6 6 6 6 6 6 6 6 6 (./ _.:.    ",
"    <.[./ / / ^.6 6 6 6 6 6 6 6 6 6 6 6 6 6 6 6 6 6 < / }.|.    ",
"    1.2./ / 3.4.6 6 6 6 6 6 6 6 6 6 6 6 6 6 6 6 6 6 5./ 6.7.    ",
"    8.O / / 9.6 6 6 6 6 6 !.0.a.b.h o 4 c.6 6 6 6 6 ,./ d.e.    ",
"    f.g./ / h.6 6 6 6 6 i.j./ / / / / / k.6 6 6 6 6 l./ m.n.    ",
"    o.i.p./ q.6 6 6 6 6 [ / / / / / / / r.6 6 6 6 6 % s.t.u.    ",
"      v.w./ 4.6 6 6 6 6 x./ / / / / / / b.6 6 6 6 6 y.z.A.      ",
"      B.C./ D.6 6 6 6 6 E.^ / / / / / / F.6 6 6 6 6 G.H.I.      ",
"      J.K.L.M.6 6 6 6 6 6 N.O.P.^ Q.R.S.6 6 6 6 6 P o T.U.      ",
"        V.W.j.q.6 6 6 6 6 6 6 6 6 6 6 6 6 6 6 6 7 P.X.Y.        ",
"        Z.`. +.+++6 6 6 6 6 6 6 6 6 6 6 6 6 6 @+#+< $+%+        ",
"          &+*+=+-+S.;+6 6 6 6 6 6 6 6 6 6 >+,+Q._.'+)+          ",
"            !+~+{+]+^+/+P (+6 6 6 6 >+_+=.:+<+[+}+|+            ",
"                1+2+3+4+5+^ #+6+U 7+i 8+9+0+a+b+`               ",
"                    c+d+e+d & f+% % % g+h+i+j+                  ",
"                                  . . . .                       ",
"                                                                ",
"                                                                "};
